<svg width="347" height="433" viewBox="0 0 347 433" fill="none" xmlns="http://www.w3.org/2000/svg">
<path d="M124.826 110.295L90.9801 316.419L106.053 310.349C102.601 308.477 103.075 303.919 105.15 300.918C108.828 295.638 117.267 296.405 122.638 297.488C135.071 300.128 145.834 308.251 157.951 312.222C179.928 319.465 201.973 311.32 219.145 297.104C250.983 270.794 267.365 227.652 270.569 187.307C277.338 101.924 222.8 23.942 138.839 4.69469C93.3719 -5.63972 44.4978 0.949031 4.76227 25.8374C-6.2942 32.742 3.90483 50.3195 15.0064 43.3697C83.7821 0.317232 184.012 19.1358 227.516 89.3331C248.802 124.5 255.932 166.441 247.463 206.667C243.41 226.52 235.381 245.348 223.861 262.017C211.608 279.504 190.443 299.541 166.976 293.742C143.51 287.943 120.923 266.146 96.3053 281.603C80.1267 291.734 77.938 318.292 95.6284 327.882C100.841 330.725 109.438 328.559 110.543 321.812L144.412 115.688C146.488 102.894 126.925 97.411 124.826 110.295Z" fill="white"/>
<path d="M97.2075 56.9986L11.0799 417.281C10.5521 419.43 10.7342 421.692 11.5991 423.729C12.4639 425.766 13.9649 427.467 15.8776 428.58C17.7902 429.693 20.0117 430.156 22.2096 429.901C24.4076 429.646 26.4638 428.686 28.0707 427.164C69.5195 388.389 124.347 367.128 181.101 367.821C236.58 369.171 289.504 391.422 329.28 430.12C338.667 439.146 353.04 424.885 343.631 415.77C300.011 373.361 241.989 348.984 181.169 347.513C119.343 346.407 58.8032 370.754 13.765 412.768L30.7333 422.652L116.793 62.3914C119.839 49.6878 100.254 44.3401 97.2075 56.9986Z" fill="white"/>
</svg>
